<?xml version="1.0" encoding="utf-8"?>
<!-- Generator: Adobe Illustrator 24.3.0, SVG Export Plug-In . SVG Version: 6.00 Build 0)  -->
<svg version="1.1" id="Layer_1" xmlns="http://www.w3.org/2000/svg" xmlns:xlink="http://www.w3.org/1999/xlink" x="0px" y="0px"
	 viewBox="0 0 80 80" enable-background="new 0 0 80 80" xml:space="preserve">
<path fill="#18CEF6" d="M20.326,49.161c0,0.51,0.057,1.007,0.16,1.49c1.347,0.031,2.568,0.034,2.85-0.052
	c0.694-0.213-0.116-4.471,5.44-5.854c5.556-1.384,6.482,6.492,6.482,6.492l15.858-0.319c0,0,0.463-0.319,1.736-3.3
	c1.273-2.98,2.547-2.554,7.176-1.916c4.629,0.639,3.241,5.109,4.283,5.215c1.042,0.107,1.968-1.171,2.662-5.322
	c0.694-4.15,0.463-13.623-1.157-19.69c-1.229-4.603-4.458-5.898-7.461-7.557H23.798c-3.559,0-3.472,2.235-3.472,4.47V49.161z"/>
<g>
	<path fill="#18CEF6" d="M19.023,62.889c-0.816-0.001-1.474-0.605-1.475-1.357l0,0c0.001-0.75,0.659-1.357,1.475-1.357l0,0h45.491
		c0.815,0,1.474,0.607,1.475,1.357l0,0c-0.001,0.751-0.661,1.355-1.475,1.357l0,0H19.023L19.023,62.889z"/>
</g>
<path fill="#233251" d="M68.189,33.569c0.008-7.449-3.866-12.402-7.688-15.383c-3.825-2.995-7.599-4.113-7.676-4.139L52.666,14
	H21.154c-3.397,0-6.152,2.532-6.154,5.658v26.888c0.001,3.124,2.756,5.657,6.154,5.658h1.878c0.834,2.666,3.5,4.619,6.67,4.62
	c3.168-0.001,5.835-1.954,6.669-4.62h14.44c0.835,2.667,3.502,4.619,6.67,4.619c3.32,0,6.09-2.142,6.778-5.003
	c2.299-0.82,3.928-2.871,3.93-5.274h-0.002C68.188,46.323,68.188,44.582,68.189,33.569z M52.748,16.063
	c1.318,0.481,4.702,1.915,7.705,4.69c2.69,2.493,5.08,6.015,5.559,11.006H49.033V15.916h3.296
	C52.423,15.947,52.563,15.995,52.748,16.063z M29.702,54.907c-2.686-0.005-4.856-2.002-4.862-4.47
	c0.006-2.469,2.176-4.466,4.862-4.47c2.684,0.004,4.857,2.001,4.861,4.47C34.559,52.906,32.386,54.902,29.702,54.907z
	 M29.702,44.051c-3.781,0.001-6.847,2.779-6.937,6.236h-1.611c-2.247-0.004-4.065-1.675-4.069-3.742V19.658
	c0.004-2.067,1.822-3.738,4.069-3.742h25.795v34.371h-10.31C36.55,46.83,33.482,44.052,29.702,44.051z M57.481,54.907
	c-2.685-0.004-4.856-2.001-4.861-4.47c0.005-2.469,2.176-4.465,4.861-4.47c2.685,0.005,4.856,2.001,4.861,4.47
	C62.338,52.906,60.166,54.903,57.481,54.907z M66.104,46.545c-0.003,1.268-0.695,2.377-1.744,3.052
	c-0.449-3.129-3.353-5.545-6.879-5.546c-3.781,0.001-6.848,2.779-6.937,6.236h-1.511V33.675h17.072c0,10.915,0,12.648,0.001,12.87
	H66.104z"/>
</svg>
